<?xml version="1.0" encoding="UTF-8"?>
<svg id="Layer_1" data-name="Layer 1" xmlns="http://www.w3.org/2000/svg" viewBox="0 0 259.44 259.25">
  <defs>
    <style>
      <!-- .cls-1 {
        fill: #000;
        stroke-width: 0px;
      } -->

      .cls-1 {
        
        stroke-miterlimit: 10;
        stroke-width: 1.5px;
      }
    </style>
  </defs>
  <path class="cls-1" d="M126.84.24c1.2,0,2.4,0,3.6,0,.67.25,1.35.49,2.02.76,28.24,11.33,56.47,22.68,84.72,33.99,2.7,1.08,4.48,2.87,5.61,5.53,9.05,21.28,18.16,42.53,27.23,63.8,3.16,7.42,6.45,14.79,9.42,22.28v3.6c-.24.64-.46,1.28-.71,1.91-11.39,28.36-22.78,56.71-34.15,85.08-1,2.49-2.67,4.17-5.12,5.22-28.07,11.97-56.14,23.96-84.2,35.97-2.62,1.12-5.13,1.16-7.77.09-28.24-11.36-56.49-22.71-84.74-34.02-2.7-1.08-4.47-2.87-5.61-5.53-11.87-27.86-23.76-55.71-35.69-83.54-1.23-2.86-1.29-5.54-.12-8.44,11.32-28.08,22.6-56.18,33.85-84.3,1.11-2.78,2.92-4.62,5.67-5.79,20.66-8.78,41.3-17.62,61.95-26.43,8.01-3.42,16.04-6.79,24.06-10.19ZM235.38,128.82c0-.7-.26-1.16-.46-1.63-10.19-23.88-20.4-47.76-30.58-71.64-.37-.87-.89-1.42-1.78-1.78-24.14-9.67-48.27-19.36-72.39-29.07-.97-.39-1.79-.37-2.74.04-23.87,10.22-47.75,20.42-71.63,30.6-.91.39-1.47.94-1.84,1.87-9.65,24.1-19.33,48.19-29.02,72.28-.39.96-.4,1.78,0,2.74,10.24,23.9,20.46,47.82,30.65,71.74.38.88.92,1.4,1.8,1.75,24.1,9.65,48.2,19.32,72.28,29.02,1.01.41,1.86.39,2.85-.04,23.91-10.23,47.82-20.44,71.74-30.64.8-.34,1.28-.84,1.6-1.64,9.71-24.21,19.43-48.41,29.15-72.62.15-.37.27-.75.35-.98Z"/>
  <path class="cls-1" d="M122.47,162.58c.48.31,1.01.16,1.51.16,15.1,0,30.21,0,45.31,0,.44,0,.88.03,1.32,0,1.02-.08,1.42.34,1.41,1.39-.05,3.04-.01,6.07-.01,9.11,0,3.88-.03,7.75.02,11.63.02,1.15-.39,1.52-1.52,1.52-7.67-.04-15.34-.02-23.01-.02-19.18,0-38.36,0-57.54,0q-2.02,0-2.02-2.06c0-5.75.04-11.51-.03-17.26-.02-1.47.42-2.54,1.4-3.62,10.16-11.17,20.27-22.39,30.4-33.6,1.16-1.29,1.15-1.29-.06-2.55-10.18-10.6-20.36-21.22-30.56-31.81-.65-.68-.96-1.37-.96-2.33.03-6.19.05-12.39,0-18.58-.01-1.22.37-1.56,1.57-1.56,26.93.03,53.86.03,80.79,0,1.1,0,1.56.27,1.55,1.47-.04,6.87-.05,13.74,0,20.62,0,1.19-.47,1.52-1.55,1.51-4.39-.03-8.79,0-13.19,0-10.59,0-21.18,0-31.77,0-.36,0-.72-.01-1.08,0-.27.01-.62-.09-.75.22-.13.31.2.49.38.68,2.64,2.78,5.28,5.56,7.93,8.34,6.79,7.11,13.56,14.23,20.38,21.31.83.87.81,1.37.02,2.24-9.75,10.68-19.46,21.4-29.17,32.12-.28.31-.68.56-.76,1.06Z"/>
</svg>